<svg width="107" height="11" viewBox="0 0 107 11" fill="none" xmlns="http://www.w3.org/2000/svg">
<path d="M30.5778 0.906914H19.529L19.1343 1.21991V10.9607H22.1728V7.28342L22.4489 7.00963H30.5777C32.6296 7.00963 33.5767 6.46201 33.5767 5.05372V2.82388C33.5768 1.45459 32.6297 0.906914 30.5778 0.906914ZM30.5778 4.50589C30.5778 5.17088 30.1437 5.28825 29.1572 5.28825H22.4885L22.1728 5.01446V2.94114L22.4489 2.6673H29.1571C30.1042 2.6673 30.5777 2.78467 30.5777 3.44965L30.5778 4.50589ZM39.1801 2.74551L41.8239 6.57922L41.6661 6.93132H35.826L34.3265 8.76997H43.0077L43.6391 9.12202L44.9807 10.9607H48.4927L40.798 0.789551L39.1801 2.74551ZM74.0233 9.00465V6.26633L74.3391 5.99244H80.2187V4.27116H70.906V10.9607H84.6382V9.23938H74.3785L74.0233 9.00465ZM70.906 0.906914H84.7565V2.78467H70.906V0.906914ZM55.4772 2.7064H66.6443C66.4865 1.29812 65.5789 0.906914 63.3691 0.906914H55.3588C52.8334 0.906914 52.0441 1.37638 52.0441 3.29318V8.61344C52.0441 10.4912 52.8334 10.9998 55.3588 10.9998H63.3691C65.6184 10.9998 66.4865 10.5695 66.5654 9.12202H55.4772L55.1614 8.80902V2.94114L55.4772 2.7064ZM11.637 4.81889H3.54766L3.31088 4.54511V2.82382L3.54766 2.62825H14.4781L14.6359 2.27615C14.2808 1.33722 13.2943 0.867863 11.5186 0.867863H3.90277C1.37735 0.867863 0.588137 1.33728 0.588137 3.25408V4.38858C0.588137 6.26639 1.37735 6.77495 3.90277 6.77495H11.9921L12.2288 7.00958V8.80907L12.0316 9.08296H0.351362C0.351362 9.08296 0.0751953 9.23938 0.0751953 9.27854C0.272472 10.6086 1.18007 10.9607 3.35033 10.9607H11.637C14.1624 10.9607 14.9911 10.4912 14.9911 8.57439V7.20516C14.9911 5.32746 14.1624 4.81889 11.637 4.81889ZM93.4772 0.867812H88.8998L88.6631 1.33722L93.7139 5.01452C94.661 4.46679 95.7264 3.91917 96.8312 3.37144L93.4772 0.867812ZM97.581 7.75288L102.04 10.9607H106.617L106.815 10.5303L100.185 5.71861C99.3173 6.3836 98.4097 7.04869 97.581 7.75288Z" fill="white" fill-opacity="0.87"/>
</svg>
